<svg xmlns="http://www.w3.org/2000/svg" id="Layer_1" viewBox="0 0 402 153.61"><defs><style>      .st0 {        fill: #11a1f2;      }      .st0, .st1 {        fill-rule: evenodd;      }      .st2 {        fill: #808285;      }      .st1 {        fill: #07055b;      }    </style></defs><path class="st2" d="M162.31,51.12h53.81c9.68,0,17.53,8.77,17.53,18.45s-7.85,16.6-17.53,16.6h-43.92c-.51,0-.93.41-.93.93v16.87c0,3.08-2.49,5.57-5.57,5.57h-3.39c-1.02,0-1.86-.83-1.86-1.86v-26.69c0-3.08,2.49-5.57,5.57-5.57h50.96c3.23,0,5.84-2.62,5.84-5.84s-2.62-6.77-5.84-6.77h-50.96c-3.08,0-5.57-2.49-5.57-5.57v-4.25c0-1.03.83-1.86,1.86-1.86h0Z"></path><path class="st2" d="M250.93,106.46l24.01-39.64,24.01,39.64c1.16,1.91,3.23,3.08,5.46,3.08h6.67c1,0,1.61-1.09,1.09-1.94l-32.59-53.8c-.59-.98-1.45-1.8-2.5-2.25-2.6-1.09-5.39-.06-6.73,2.15l-32.65,53.9c-.52.85.1,1.94,1.09,1.94h6.67c2.23,0,4.31-1.17,5.46-3.08h0Z"></path><path class="st2" d="M369.31,79.44l26.49-26.03c.86-.84.26-2.3-.94-2.3h-8.68c-2.14,0-4.19.84-5.72,2.34l-16.24,15.96c-2.49,2.45-6.48,2.45-8.97,0l-16.24-15.96c-1.53-1.5-3.58-2.34-5.72-2.34h-8.68c-1.2,0-1.8,1.46-.94,2.3l26.49,26.03c.49.49.49,1.28,0,1.77l-26.49,26.03c-.86.84-.26,2.3.94,2.3h8.68c2.14,0,4.19-.84,5.72-2.34l16.24-15.96c2.49-2.45,6.48-2.45,8.97,0l16.24,15.96c1.53,1.5,3.58,2.34,5.72,2.34h8.68c1.2,0,1.8-1.46.94-2.3l-26.49-26.03c-.49-.49-.49-1.28,0-1.77Z"></path><path class="st2" d="M236.62,124.42h17.95c.2,0,.37.17.37.37v.85c0,.61-.5,1.11-1.11,1.11h-7.34c-.1,0-.18.08-.18.19v8.03c0,.61-.5,1.11-1.11,1.11h-.68c-.21,0-.37-.17-.37-.37v-8.77c0-.1-.08-.19-.19-.19h-8.08c-.2,0-.37-.17-.37-.37v-.85c0-.61.5-1.11,1.11-1.11h0Z"></path><path class="st2" d="M280.57,124.79v5.73c0,3.07-2.49,5.56-5.56,5.56h-8.31c-3.07,0-5.56-2.49-5.56-5.56v-4.99c0-.61.5-1.11,1.11-1.11h.68c.2,0,.37.17.37.37v5.73c0,1.78,1.44,3.23,3.23,3.23h8.66c1.78,0,3.23-1.44,3.23-3.23v-4.99c0-.61.5-1.11,1.11-1.11h.68c.2,0,.37.17.37.37h0ZM267.41,122.26c0-.6.48-1.08,1.08-1.08h.45c.6,0,1.08.48,1.08,1.08s-.48,1.08-1.08,1.08h-.45c-.6,0-1.08-.48-1.08-1.08ZM271.7,122.26c0-.6.48-1.08,1.08-1.08h.45c.6,0,1.08.48,1.08,1.08s-.48,1.08-1.08,1.08h-.45c-.6,0-1.08-.48-1.08-1.08Z"></path><path class="st2" d="M307.96,135.39c.05.37-.24.69-.6.69h-.98c-.49,0-.97-.16-1.36-.46l-4.86-3.75c-.39-.3-.87-.46-1.36-.46h-7.92c-.1,0-.18.08-.18.18v3.37c0,.61-.5,1.11-1.11,1.11h-.68c-.21,0-.37-.17-.37-.37v-5.33c0-.61.5-1.11,1.11-1.11h14.99c.66,0,1.19-.54,1.17-1.2-.02-.64-.57-1.32-1.21-1.32h-14.94c-.61,0-1.11-.5-1.11-1.11v-.85c0-.2.16-.37.37-.37h15.56c1.97,0,3.57,1.82,3.5,3.81-.07,1.9-1.68,3.18-3.58,3.18h-1c-.1,0-.14.13-.06.18l4.39,3.38c.13.1.23.25.25.41l-.02.02Z"></path><path class="st2" d="M335.28,125.02c0,.18-.09.36-.23.47l-5.96,4.62c-.1.07-.1.22,0,.29l5.96,4.59c.15.11.23.29.23.47h0c0,.34-.27.61-.6.61h-.99c-.49,0-.97-.16-1.36-.46l-5.35-4.13c-.06-.05-.15-.08-.23-.08h-8.56c-.1,0-.19.08-.19.18v3.37c0,.61-.5,1.11-1.11,1.11h-.68c-.2,0-.37-.17-.37-.37v-10.92c0-.2.17-.37.37-.37h.68c.61,0,1.11.5,1.11,1.11v3.37c0,.1.08.19.19.19h8.58c.08,0,.16-.03.23-.08l5.32-4.12c.39-.3.86-.46,1.36-.46h1c.34,0,.6.27.6.6h0Z"></path><path class="st2" d="M343.67,124.42h.67c.21,0,.37.17.37.37v10.18c0,.61-.5,1.11-1.11,1.11h-.68c-.2,0-.37-.17-.37-.37v-10.18c0-.61.5-1.11,1.11-1.11h.01Z"></path><path class="st2" d="M369.46,124.42h1c.34,0,.6.27.6.6,0,.19-.08.36-.23.47l-8.25,6.39c-.09.07-.14.18-.14.29v2.81c0,.6-.48,1.08-1.08,1.08h-1.08c-.2,0-.37-.17-.37-.37v-3.52c0-.11-.05-.22-.14-.29l-8.25-6.39c-.15-.11-.23-.29-.23-.47,0-.33.27-.6.6-.6h1c.49,0,.97.16,1.35.46,1.86,1.44,5.21,4.03,6.71,5.2.13.1.32.1.45,0,1.5-1.17,4.85-3.76,6.71-5.2.39-.3.86-.46,1.35-.46h0Z"></path><path class="st2" d="M382.28,126.75c-1.78,0-3.23,1.44-3.23,3.23v.55c0,1.78,1.44,3.23,3.23,3.23h12.93c.61,0,1.11.5,1.11,1.11v.85c0,.2-.17.37-.37.37h-13.5c-3.07,0-5.56-2.49-5.56-5.56v-.54c0-3.07,2.49-5.56,5.56-5.56h13.5c.2,0,.37.17.37.37v.85c0,.61-.5,1.11-1.11,1.11h-12.93ZM381.22,130.19c0-.61.5-1.11,1.11-1.11h11.47c.2,0,.37.17.37.37v.67c0,.61-.5,1.11-1.11,1.11h-10.81c-.57,0-1.04-.46-1.04-1.03h.01Z"></path><path class="st2" d="M342.33,122.26c0-.6.48-1.08,1.08-1.08h.45c.6,0,1.08.48,1.08,1.08s-.48,1.08-1.08,1.08h-.45c-.6,0-1.08-.48-1.08-1.08Z"></path><path class="st0" d="M39.56,38.37c30.98-24.86,61.37-24.7,73.11-13.96-1.01.09-2,.21-2.97.35-.57.08-1.14.17-1.71.27-8.99-8.03-32.2,3.17-61,25.67-30.02,23.46-39.89,44.03-31.79,54.12,8.1,10.09,33.68,3.92,62.48-20.62,19.95-17,31.2-33.46,33.54-45.32,2.54-.97,4.92-1.71,7.13-2.22,1.64,15.4-8.71,39.33-33.69,58.86-31.91,24.94-61.17,29.3-73.52,13.5-12.35-15.8-4.11-44.55,28.42-70.64h0Z"></path><path class="st1" d="M64.75,51.61c32.64-25.78,64.44-27.24,74.34-13.69,9.89,13.55.5,45.24-30.66,70.74-28.75,23.54-56.58,28.13-70.29,16.24-.07-.06-.13-.11-.2-.17-.18-.16-.36-.32-.54-.49l-.05-.05c-.2-.2-.41-.39-.6-.6.39-.03.78-.07,1.17-.11h0c.23-.02.46-.05.69-.08h0c.25-.03.5-.06.76-.1h0c.11-.02.23-.03.34-.05h.07l.2-.03h0l.14-.02h.07s.14-.03.14-.03h.07s.14-.03.14-.03h.07s.07-.01.07-.01h0c.11-.03.23-.05.34-.06h.07s.07-.01.07-.01h0c.34.22.68.43,1.04.62h.02c.17.1.34.19.52.27l.06.03c.16.08.33.15.49.22l.1.04c.16.06.31.12.47.18.05.02.09.03.14.05.15.05.3.1.46.15.05.02.11.03.16.05h0c11.91,3.47,33.4-7.95,56.63-27.56,33.84-28.57,42.74-53.14,30.78-59.83-9.3-5.2-31.22,2.95-60.47,25.76-21.36,16.66-33.82,32.98-35.71,45.25-2.03.5-3.95.84-5.76,1.02-1.97-16.06,9.3-37.64,34.67-57.68v-.02Z"></path></svg>